<?xml version="1.0" standalone="no"?>
<!DOCTYPE svg PUBLIC "-//W3C//DTD SVG 20010904//EN"
 "http://www.w3.org/TR/2001/REC-SVG-20010904/DTD/svg10.dtd">
<svg version="1.0" xmlns="http://www.w3.org/2000/svg"
 width="1280.000000pt" height="1170.000000pt" viewBox="0 0 1280.000000 1170.000000"
 preserveAspectRatio="xMidYMid meet">
<g transform="translate(0.000000,1170.000000) scale(0.100000,-0.100000)"
fill="#000000" stroke="none">
<path d="M2745 11690 c-11 -5 -83 -29 -160 -53 -618 -198 -1221 -580 -1647
-1043 -289 -313 -521 -658 -719 -1069 -111 -231 -163 -360 -184 -460 -9 -44
-21 -96 -26 -116 -15 -61 -10 -285 11 -469 11 -96 20 -222 20 -280 l0 -105
107 -225 c432 -902 699 -1384 1105 -1994 1055 -1583 2341 -2865 3905 -3890
871 -570 1849 -1062 2798 -1406 338 -122 868 -287 1240 -386 94 -25 270 -72
393 -105 236 -64 252 -66 642 -86 120 -6 329 21 471 61 303 85 567 250 932
583 288 264 546 578 770 938 110 177 146 259 210 475 103 344 135 487 157 700
6 58 15 138 21 178 12 93 12 243 0 313 -6 30 -15 113 -21 184 -37 417 -99 576
-248 631 -113 41 -479 29 -1377 -46 -1301 -109 -2013 -181 -2091 -211 -119
-45 -193 -260 -214 -628 -11 -184 -23 -247 -61 -322 -44 -89 -153 -169 -229
-169 -30 0 -201 90 -317 166 -188 125 -667 491 -1323 1013 -1223 973 -3319
2683 -3690 3010 -129 113 -300 283 -316 313 -20 38 -18 112 5 156 63 123 241
233 681 422 207 88 448 207 538 264 55 34 92 108 92 181 0 50 -41 212 -107
425 -77 248 -814 2295 -898 2494 -157 374 -177 417 -221 465 -29 32 -60 55
-87 64 -118 40 -127 42 -162 27z"/>
</g>
</svg>
